<?xml version="1.0" encoding="iso-8859-1"?>
<!-- Generator: Adobe Illustrator 19.0.0, SVG Export Plug-In . SVG Version: 6.00 Build 0)  -->
<svg version="1.1" id="Layer_1" xmlns="http://www.w3.org/2000/svg" xmlns:xlink="http://www.w3.org/1999/xlink" x="0px" y="0px"
	 viewBox="0 0 512.001 512.001" style="enable-background:new 0 0 512.001 512.001;" xml:space="preserve">
<g>
	<g>
		
			<rect x="122.752" y="347.101" transform="matrix(0.7071 -0.7071 0.7071 0.7071 -234.0613 211.0777)" width="30.021" height="81.95"/>
	</g>
</g>
<g>
	<g>
		
			<rect x="167.153" y="310.487" transform="matrix(0.7071 -0.7071 0.7071 0.7071 -189.6568 229.4675)" width="30.021" height="66.366"/>
	</g>
</g>
<g>
	<g>
		<path d="M463.444,0.874l-26.159,22.581L413.829,0l-21.228,21.228l21.896,21.896l-8.475,7.316l-25.049-25.049l-21.228,21.228
			l23.491,23.491l-25.651,22.141l12.455,12.455L247.523,227.22l-2.507-1.611c-1.51-0.971-2.206-2.787-1.731-4.518l6.124-22.354
			c4.051-14.785-2.049-30.142-15.18-38.213c-12.928-7.945-29.125-6.479-40.308,3.651c-0.391,0.354-0.762,0.707-1.114,1.06
			c-19.004,19.005-26.974,34.431-34.006,48.04c-6.464,12.511-12.046,23.315-25.785,37.054c-9.943,9.944-22.828,14.828-37.746,20.485
			c-16.611,6.298-35.438,13.436-51.248,29.246C16.75,327.335,7.9,357.309,17.721,389.148c8.645,28.031,30.487,52.359,48.552,70.424
			c18.063,18.064,42.392,39.906,70.423,48.551c8.389,2.587,16.644,3.878,24.759,3.878c22.683-0.001,44.24-10.095,64.329-30.183
			c15.81-15.811,22.948-34.637,29.246-51.248c5.656-14.918,10.541-27.801,20.483-37.744c9.725-9.724,17.438-13.344,26.37-17.536
			c9.997-4.691,21.328-10.01,34.677-23.359c2.973-2.973,6.123-7.268,9.63-13.131c6.407-10.713,6.51-23.579,0.272-34.418
			c-6.167-10.716-17.66-17.246-30.023-17.119l-27.103,0.343l131.802-131.802l13.031,13.031l63.989-81.948L463.444,0.874z
			 M316.818,317.279c2.05-0.036,3.17,1.289,3.624,2.075c0.536,0.932,0.969,2.388-0.017,4.035c-3.065,5.124-4.673,6.892-5.093,7.312
			c-9.634,9.633-17.313,13.237-26.205,17.41c-10.032,4.708-21.403,10.045-34.843,23.485c-14.501,14.5-21.021,31.698-27.327,48.329
			c-5.734,15.125-11.151,29.411-22.403,40.663c-34.113,34.113-66.932,27.876-117.054-22.246
			c-50.122-50.124-56.36-82.943-22.25-117.056c11.253-11.252,25.539-16.669,40.663-22.403c16.633-6.306,33.831-12.827,48.331-27.329
			c17.039-17.039,24.252-31.001,31.228-44.501c6.613-12.8,12.859-24.889,28.608-40.635c0.36-0.327,1.115-1.01,2.284-1.01
			c0.603,0,1.318,0.182,2.146,0.69c1.263,0.777,2.626,2.223,1.945,4.703l-6.125,22.355c-3.958,14.448,1.849,29.599,14.449,37.701
			l17.424,11.203c0.869,0.558,1.489,1.415,1.747,2.414l7.14,27.598c3.946,15.251,17.709,25.801,33.452,25.562L316.818,317.279z
			 M277.12,257.363l-0.105-0.404c-1.075-4.154-2.9-8.014-5.357-11.419l119.608-119.608l8.642,8.642L277.12,257.363z
			 M431.398,123.605l-29.742-29.74l49.649-42.856l12.533,31.052L431.398,123.605z"/>
	</g>
</g>
<g>
</g>
<g>
</g>
<g>
</g>
<g>
</g>
<g>
</g>
<g>
</g>
<g>
</g>
<g>
</g>
<g>
</g>
<g>
</g>
<g>
</g>
<g>
</g>
<g>
</g>
<g>
</g>
<g>
</g>
</svg>
