<?xml version="1.0" encoding="iso-8859-1"?>
<!-- Generator: Adobe Illustrator 19.0.0, SVG Export Plug-In . SVG Version: 6.00 Build 0)  -->
<svg version="1.1" id="Layer_1" xmlns="http://www.w3.org/2000/svg" xmlns:xlink="http://www.w3.org/1999/xlink" x="0px" y="0px"
	 viewBox="0 0 512 512" style="enable-background:new 0 0 512 512;" xml:space="preserve">
<g>
	<g>
		<path d="M331.069,423.012c-3.896-3.916-10.227-3.933-14.142-0.038l-0.182,0.181c-3.916,3.895-3.933,10.227-0.039,14.142
			c1.955,1.965,4.522,2.948,7.09,2.948c2.55,0,5.101-0.969,7.052-2.91l0.182-0.181C334.946,433.259,334.963,426.927,331.069,423.012
			z"/>
	</g>
</g>
<g>
	<g>
		<path d="M375.999,156.187H272c-5.523,0-10,4.477-10,10v55.999c0,5.523,4.477,10,10,10h42v41.329
			c-17.09-11.216-37.078-17.24-57.994-17.24c-20.955,0-40.978,6.046-58.088,17.301v-41.39h42c5.523,0,10-4.477,10-10v-55.999
			c0-5.523-4.477-10-10-10H135.918c-5.523,0-10,4.477-10,10v55.999c0,5.523,4.477,10,10,10h42v58.417
			c-38.159,41.534-37.119,106.37,3.135,146.624c8.781,8.781,18.887,15.767,29.77,20.869l-18.578,24.047
			c-3.376,4.371-2.571,10.651,1.8,14.027c1.82,1.406,3.972,2.087,6.106,2.087c2.991,0,5.951-1.336,7.921-3.887l22.606-29.261
			c8.346,2.049,16.928,3.093,25.543,3.093c8.417,0,16.866-0.997,25.156-3.023l22.552,29.192c1.97,2.55,4.929,3.887,7.921,3.887
			c2.135,0,4.286-0.681,6.106-2.087c4.371-3.376,5.176-9.657,1.8-14.027l-18.572-24.04c4.289-2.593,6.048-8.045,3.91-12.712
			c-2.3-5.021-8.236-7.228-13.256-4.927c-32.515,14.893-71.352,7.909-96.642-17.38c-33.532-33.531-33.532-88.089,0-121.621
			c16.243-16.243,37.839-25.189,60.81-25.189c22.972,0,44.568,8.946,60.81,25.189c25.29,25.29,32.274,64.127,17.379,96.643
			c-2.3,5.021-0.094,10.956,4.927,13.256c5.022,2.302,10.956,0.094,13.256-4.927c17.747-38.739,10.292-84.755-18.377-115.936
			v-58.314h42c5.523,0,10-4.477,10-10v-55.999C385.999,160.664,381.522,156.187,375.999,156.187z M145.918,212.187v-36h83.999v36
			H145.918z M365.999,212.187H282v-36h83.999V212.187z"/>
	</g>
</g>
<g>
	<g>
		<path d="M511.557,485.27l-33.692-109.746v-221.59c0-2.652-1.054-5.196-2.929-7.071l-50.219-50.219
			c24.202-27.032,38.986-60.007,22.828-76.166c-4.852-4.85-16.435-11.51-39.508-1.623c-14.23,6.099-29.832,17.222-43.931,31.321
			c-14.099,14.1-25.223,29.701-31.321,43.931c-9.889,23.074-3.228,34.657,1.623,39.508c4.694,4.694,10.808,6.777,17.783,6.777
			c17.036,0,39.207-12.431,58.385-29.603l47.288,47.287v217.448l-27.729,90.322l-22.139-36.057V309.207h30c5.523,0,10-4.477,10-10
			v-48c0-5.523-4.477-10-10-10h-79.999c-5.523,0-10,4.477-10,10v48c0,5.523,4.477,10,10,10h30v120.583l-32.654,53.183
			c-2.89,4.707-1.417,10.865,3.29,13.754c4.708,2.89,10.866,1.417,13.754-3.29l25.61-41.711l25.61,41.711
			c1.888,3.075,5.17,4.769,8.532,4.769c0.218,0,0.437-0.03,0.655-0.044c4.625,0.44,9.08-2.406,10.497-7.023l24.573-80.041
			l24.573,80.041c1.321,4.303,5.279,7.068,9.556,7.068c0.972,0,1.961-0.143,2.938-0.443
			C510.212,496.144,513.178,490.549,511.557,485.27z M403.71,89.77c-0.001,0.001-0.003,0.003-0.004,0.004
			c-0.001,0.001-0.002,0.003-0.004,0.004c-27.558,27.555-51.457,33.389-55.15,29.694c-3.694-3.693,2.139-27.595,29.699-55.153
			c12.164-12.164,25.893-22.035,37.667-27.081c6.17-2.645,10.77-3.532,13.741-3.532c1.966,0,3.22,0.389,3.746,0.914
			C437.098,38.313,431.265,62.213,403.71,89.77z M367.999,289.207v-28h59.999v28H367.999z"/>
	</g>
</g>
<g>
	<g>
		<path d="M101.422,110.789c19.18,17.173,41.35,29.605,58.385,29.603c6.973-0.001,13.09-2.084,17.784-6.777
			c17.64-17.641-1.588-55.328-29.699-83.438c-14.1-14.1-29.701-25.223-43.931-31.322c-23.074-9.89-34.656-3.228-39.508,1.623
			c-16.158,16.159-1.375,49.133,22.828,76.166l-50.219,50.218c-1.875,1.875-2.929,4.419-2.929,7.071v221.59L0.443,485.27
			c-1.621,5.279,1.345,10.874,6.625,12.494c5.277,1.621,10.873-1.345,12.494-6.625l24.573-80.041l24.573,80.041
			c1.321,4.303,5.279,7.068,9.556,7.068c0.278,0,0.557-0.015,0.837-0.039c3.62,0.277,7.262-1.425,9.291-4.731l25.61-41.711
			l25.61,41.711c1.888,3.075,5.17,4.769,8.532,4.769c1.784,0,3.591-0.478,5.223-1.479c4.707-2.89,6.179-9.048,3.29-13.754
			l-32.654-53.183V309.207h30c5.523,0,10-4.477,10-10v-48c0-5.523-4.477-10-10-10H74.002c-5.523,0-10,4.477-10,10v48
			c0,5.523,4.477,10,10,10h30v120.583l-22.139,36.057l-27.729-90.322V158.076L101.422,110.789z M78.597,34.62
			c0.525-0.526,1.779-0.915,3.746-0.915c2.972,0,7.571,0.888,13.741,3.532c11.774,5.046,25.503,14.917,37.667,27.081
			c27.56,27.559,33.393,51.46,29.699,55.153c-3.696,3.696-27.594-2.14-55.15-29.694c-0.001-0.001-0.003-0.003-0.004-0.004
			c-0.001-0.001-0.003-0.002-0.004-0.004C80.736,62.212,74.903,38.313,78.597,34.62z M84.002,289.207v-28h59.999v28H84.002z"/>
	</g>
</g>
<g>
</g>
<g>
</g>
<g>
</g>
<g>
</g>
<g>
</g>
<g>
</g>
<g>
</g>
<g>
</g>
<g>
</g>
<g>
</g>
<g>
</g>
<g>
</g>
<g>
</g>
<g>
</g>
<g>
</g>
</svg>
